<svg xmlns="http://www.w3.org/2000/svg" viewBox="0 0 369.46 153.05"><title>logotype-desktop</title><path d="M119.85,11.43C127,9,127.59,0,120.5,0c-1.95,0-4.28,1.37-5.88,4.17L105,20.73a13.83,13.83,0,0,1-1.37,2c-2.46-3.39-1.74-8.45,1.71-10.67l-1.44-1.81c-7.46,4.75-5.27,18.48,7.18,18.48C121.77,28.74,126.7,16,119.85,11.43ZM111.06,26a10.23,10.23,0,0,1-5.13-1.23,18.43,18.43,0,0,0,1.78-2.53l6-10.37,1,.1C123,13.72,119.68,26,111.06,26Zm3.83-16.22,2.87-4.93c2.6-4.48,5.92-1.85,4.14,1.5C120.54,8.93,118.52,9.72,114.89,9.79Z" fill="#fff"/><path d="M259.21,19l-.24.27a16.74,16.74,0,0,1-6.5,5c.58-.92,1-1.92,1.47-2.67l3.93-6.74c3.32-5.64-2.05-7.53-5.68-4.28l.72-1.23h-3.56L243.79,19h0l-.24.27a7.66,7.66,0,0,1-5.37,2.63l3.35-5.78c2.16-3.73.17-7.25-3.18-7.25-2.74,0-4.86,1.09-6.91,4.65l-1.75,3L228.23,19l-.19.22c-2.57,3-5.06,5.34-6.64,5.34-.79,0-1.23-.55-.41-1.95l5.13-9c1.54-2.7.07-4.65-1.92-4.65-1.54,0-3.18.85-5,2.7l5.68-9.89h-3.56L211.44,19l-.2.23A22.14,22.14,0,0,1,207,23.1c1.13-3.39.89-8.59,3.08-13.14l-2.67-1.44c-1.47,2-4.69,6.67-7.9,10.43h0l-.24.27c-2.57,3-5.06,5.34-6.64,5.34-.79,0-1.23-.55-.41-1.95l3.56-6.23c1.23-2.16.65-3.42-.51-4.82l-2-2.39a1.39,1.39,0,0,1,.2-2.05l-1.85-2c-2,1.81-2.19,3.83-.92,5.47L191,11c-1.57,2.22-3.69,5.23-6,8l-.24.27c-2.57,3-5.85,5.34-8.35,5.34-2.19,0-3.49-1.37-1.85-4.24l.34-.62c2.29,1,6.6.51,9.27-4.1l.51-.89c1.92-3.28.07-5.75-2.84-5.75a7.53,7.53,0,0,0-6.67,4.11L171.7,19l-.21.24a7.59,7.59,0,0,1-5.37,2.63l3.35-5.78A8.66,8.66,0,0,0,170.8,12a3,3,0,0,0-3.22-3.18,4.14,4.14,0,0,0-2.33.79l4.52-7.83h-3.63L156.17,19l-.19.21c-2.57,3-5.06,5.34-6.64,5.34-.79,0-1.23-.55-.41-1.95l3.56-6.23c1.23-2.16.65-3.42-.51-4.82l-2-2.39a1.39,1.39,0,0,1,.21-2.05l-1.85-2c-2,1.81-2.19,3.83-.92,5.47l.31.41c-1.57,2.22-3.7,5.23-6,8l-.24.27c-2.57,3-5.06,5.34-6.64,5.34-.79,0-1.23-.55-.41-1.95l5.75-10.06h-2A3.7,3.7,0,0,0,134.43,9c-1.92,0-4.58,1.51-6.09,4.11l-5,8.62c-1.51,2.64-.44,5.06,2.43,5.06,1.44,0,3.22-.92,4.93-2.33.17,1.37,1.27,2.33,3.08,2.33,2.94,0,6.33-3.15,9.27-6.57h0c1.71-2,3-3.76,5.88-7.63l.48.58a1.75,1.75,0,0,1,.21,2l-3.76,6.53c-1.5,2.64-.44,5.06,2.43,5.06,2.06,0,4.34-1.55,6.54-3.65v0c0,2.43,1.81,3.8,4.11,3.8A7.87,7.87,0,0,0,165,23.61a6,6,0,0,0,.79,0,10.44,10.44,0,0,0,4.72-1.4c-.19,2.57,1.68,4.52,4.82,4.52,4,0,8-3.15,11-6.57,1.71-2,3-3.76,5.88-7.63l.48.58a1.75,1.75,0,0,1,.2,2l-3.76,6.53c-1.51,2.64-.44,5.06,2.43,5.06s6.33-3.15,9.27-6.57h0c2-2.33,3.8-4.82,5.06-6.5-1.4,3.7-.65,10.33-4,10.33a2,2,0,0,1-1.68-1.3l-2.22,1.16a3.88,3.88,0,0,0,3.9,2.87,9.63,9.63,0,0,0,1-.07s.07,0,.1,0a12.54,12.54,0,0,0,5.47-2.36l-1.22,2.12h3.59l5.4-9.41c5.48-6.88,7.9-6,6.36-3.35l-4.62,8c-1.51,2.63-.44,5.06,2.43,5.06,2.07,0,4.35-1.56,6.55-3.67,0,4.54,6.29,5.42,10.15.55h.79a9.8,9.8,0,0,0,3.81-.94l-6.48,11.24h3.59l10.64-18.51c4-5.41,6.47-3.42,5.54-1.81l-5.37,9.31a1.37,1.37,0,0,1-2.57,0l-2,1a3.88,3.88,0,0,0,3.9,2.87h.21c5.17-.1,8.55-3.18,11.46-6.57A2.25,2.25,0,0,0,259.21,19Zm-81-5c2.05-3.52,5.68-2.94,3.56.75l-.51.89c-1.71,2.91-4,2.84-5.34,2.36Zm-45.61,5.61c-2.16,3.39-4.28,5-5.75,5-.79,0-1.23-.55-.41-1.95l5-8.66c1.92-3.32,5.71-2.46,4,.75Zm26.79,4.86a1.33,1.33,0,0,1-1.44-1.37,4,4,0,0,1,.62-1.85L159.82,19a5.23,5.23,0,0,0,2.26,3.69A3.34,3.34,0,0,1,159.37,24.43ZM163.1,21a3.84,3.84,0,0,1-1.51-3.22c0-2.53,2.46-6.67,4.48-6.67a1.36,1.36,0,0,1,1.34,1.54,4.33,4.33,0,0,1-.68,2.12Zm73.08-1.78H236a2.1,2.1,0,0,0-2.09,2.12,2.34,2.34,0,0,0,.34,1.2l0,.07c-1.68,2.87-5.75,2.33-3.63-1.37l2.7-4.69L235,13.62c2.5-4.24,5.92-2.57,3.76,1.13Z" fill="#fff"/><rect x="1.67" y="69.23" width="8.08" height="8.08" transform="translate(-50.13 25.49) rotate(-44.99)" fill="#fff"/><rect x="353.66" y="69.22" width="8.08" height="8.08" transform="translate(52.95 274.37) rotate(-44.99)" fill="#fff"/><polygon points="48.38 73.49 50.45 73.49 50.45 65.21 53.71 65.21 53.71 63.14 48.38 63.14 48.38 73.49" fill="#636466"/><path d="M63.19,75V62.39a4.54,4.54,0,0,0-2.55-4,4.44,4.44,0,0,1,.48,2V72.94a4.45,4.45,0,0,1-1.65,3.49,5.17,5.17,0,0,1,1.65,3.68v14a4.6,4.6,0,0,1-4.54,4.54H43.09v2.07H58.66a4.6,4.6,0,0,0,4.54-4.54v-14a5.17,5.17,0,0,0-1.65-3.68A4.45,4.45,0,0,0,63.19,75Z" fill="#636466"/><polygon points="48.38 91.27 50.45 91.27 50.45 82.92 53.71 82.92 53.71 80.85 48.38 80.85 48.38 91.27" fill="#636466"/><polygon points="81.22 91.27 83.3 91.27 83.3 65.21 86.56 65.21 86.56 63.14 81.22 63.14 81.22 91.27" fill="#636466"/><path d="M93.49,58.34a4.44,4.44,0,0,1,.48,2V94.15a4.61,4.61,0,0,1-4.53,4.54h-11a4.47,4.47,0,0,1-2-.48,4.54,4.54,0,0,0,4.05,2.55h11A4.6,4.6,0,0,0,96,96.22V62.39A4.55,4.55,0,0,0,93.49,58.34Z" fill="#636466"/><polygon points="114.07 73.49 116.15 73.49 116.15 65.21 119.41 65.21 119.41 63.14 114.07 63.14 114.07 73.49" fill="#636466"/><path d="M126.26,82.49a4.45,4.45,0,0,0,2.57-4V62.39a4.53,4.53,0,0,0-2.55-4.08,4.53,4.53,0,0,1,.48,2V76.37a4.44,4.44,0,0,1-2.57,4l3.06,18.26h-5.63l.35,2.07h7.36Z" fill="#636466"/><polygon points="116.89 80.85 114.07 80.85 114.07 98.68 108.79 98.68 108.79 100.75 116.15 100.75 116.15 82.92 117.24 82.92 116.89 80.85" fill="#636466"/><polygon points="145.94 91.27 148.02 91.27 148.02 65.21 151.28 65.21 151.28 63.14 145.94 63.14 145.94 91.27" fill="#636466"/><path d="M158.21,58.34a4.42,4.42,0,0,1,.48,2V94.15a4.61,4.61,0,0,1-4.53,4.54h-11a4.47,4.47,0,0,1-2-.48,4.54,4.54,0,0,0,4,2.55h11a4.6,4.6,0,0,0,4.53-4.54V62.39A4.54,4.54,0,0,0,158.21,58.34Z" fill="#636466"/><polygon points="178.79 91.27 180.87 91.27 180.87 65.21 184.13 65.21 184.13 63.14 178.79 63.14 178.79 91.27" fill="#636466"/><path d="M191.06,58.34a4.44,4.44,0,0,1,.48,2V94.15A4.61,4.61,0,0,1,187,98.68H173.51v2.07h15.57a4.6,4.6,0,0,0,4.53-4.54V62.39A4.54,4.54,0,0,0,191.06,58.34Z" fill="#636466"/><polygon points="212.01 57.86 212.01 98.68 206.73 98.68 206.73 100.75 214.08 100.75 214.08 57.86 212.01 57.86" fill="#636466"/><polygon points="244.74 57.86 244.74 98.68 238.86 98.68 239.46 100.75 246.81 100.75 246.81 57.86 244.74 57.86" fill="#636466"/><polygon points="231.99 79.93 231.99 98.68 226.71 98.68 226.71 100.75 234.06 100.75 234.06 87.14 231.99 79.93" fill="#636466"/><path d="M264.09,82.92h6.08V80.85H262a4.49,4.49,0,0,1-2-.48A4.51,4.51,0,0,0,264.09,82.92Z" fill="#636466"/><polygon points="266.91 85.68 264.84 86.16 264.84 91.27 266.91 91.27 266.91 85.68" fill="#636466"/><path d="M277.11,58.34a4.44,4.44,0,0,1,.48,2V69l-5.34,1.24v2.55l7.41-1.72v-8.7A4.54,4.54,0,0,0,277.11,58.34Z" fill="#636466"/><path d="M277.11,76.05a4.44,4.44,0,0,1,.48,2V94.15A4.61,4.61,0,0,1,273,98.68H262a4.48,4.48,0,0,1-2-.48,4.54,4.54,0,0,0,4.05,2.55h11a4.61,4.61,0,0,0,4.54-4.54V80.1A4.54,4.54,0,0,0,277.11,76.05Z" fill="#636466"/><polygon points="264.84 63.14 264.84 73.49 266.91 73.49 266.91 65.21 270.17 65.21 270.17 63.14 264.84 63.14" fill="#636466"/><polygon points="298.36 80.85 297.69 80.85 297.69 98.68 292.41 98.68 292.41 100.75 299.76 100.75 299.76 85.31 298.36 80.85" fill="#636466"/><polygon points="313.43 57.86 310.69 57.86 304.49 77.17 311.35 98.68 305.38 98.68 305.95 100.51 306.01 100.75 313.43 100.75 306.56 79.25 313.43 57.86" fill="#636466"/><polygon points="330.72 57.86 330.72 98.68 325.44 98.68 325.44 100.75 332.8 100.75 332.8 57.86 330.72 57.86" fill="#636466"/><path d="M167.89,123.85h1.41c5.43.28,9.69,1.73,12.39,4.72,2.74-3,7-4.46,12.46-4.72h1.35c12.11.82,17.63,9.5,27.3,13.19a11.12,11.12,0,0,0,4.79,1c2.48-.27,4.06-2.78,3.74-5.58-.34-3-3.28-5.61-6.56-4.17a4.32,4.32,0,0,0-1.17.8c-.25.23-.53.83-1.17.61-.6-.5,0-1.23.31-1.65a6,6,0,0,1,6.07-3c5.63.4,10.67,5.34,9.81,12.82C236.71,149,226.52,152,214.46,153h-3.93a48.28,48.28,0,0,1-28.77-11,49.07,49.07,0,0,1-28.9,11H149c-12.16-1.07-22.44-4-24.23-15.46-.68-8.16,4.18-12.17,9.82-12.58a6.11,6.11,0,0,1,6.14,3c.28.46.8,1.17.31,1.72-.61.11-.91-.37-1.17-.61a4,4,0,0,0-2.82-1.23c-3.86-.14-6.08,4.15-4.54,7.61a4.33,4.33,0,0,0,3.37,2.52,11.69,11.69,0,0,0,4.79-1,23.84,23.84,0,0,0,3.87-1.9C151.89,130.81,157.63,124.76,167.89,123.85Z" fill="#fff"/><rect x="361.55" y="79.63" width="8.04" height="2.93" transform="translate(49.75 282.28) rotate(-45.01)" fill="#636466"/><rect x="11.29" y="79.65" width="8.05" height="2.93" transform="translate(-52.87 34.59) rotate(-45)" fill="#636466"/><path d="M57.18,69a4.45,4.45,0,0,1-1.65,3.49,5.17,5.17,0,0,1,1.65,3.68v14a4.61,4.61,0,0,1-4.54,4.54H37.08V51.84H52.65a4.56,4.56,0,0,1,4.54,4.54V69Zm-7.41-9.8H44.44V69.56h5.33Zm0,17.71H44.44V87.33h5.33Z" fill="#fff"/><path d="M85.5,51.84A4.56,4.56,0,0,1,90,56.38V90.21a4.6,4.6,0,0,1-4.53,4.53h-11a4.56,4.56,0,0,1-4.54-4.53V56.38a4.53,4.53,0,0,1,4.54-4.54ZM82.62,59.2H77.29V87.33h5.33Z" fill="#fff"/><path d="M116,94.74l-3-17.83h-2.82V94.74h-7.35V51.84h15.57a4.51,4.51,0,0,1,4.47,4.54V72.44a4.44,4.44,0,0,1-2.57,4l3.06,18.26Zm-.49-35.54h-5.33V69.56h5.33Z" fill="#fff"/><path d="M150.22,51.84a4.56,4.56,0,0,1,4.53,4.54V90.21a4.6,4.6,0,0,1-4.53,4.53h-11a4.56,4.56,0,0,1-4.54-4.53V56.38a4.53,4.53,0,0,1,4.54-4.54Zm-2.88,7.35H142V87.33h5.33Z" fill="#fff"/><path d="M183.07,51.84a4.56,4.56,0,0,1,4.53,4.54V90.21a4.6,4.6,0,0,1-4.53,4.53H167.5V51.84Zm-2.88,7.35h-5.33V87.33h5.33Z" fill="#fff"/><path d="M200.72,51.84h7.35v42.9h-7.35Z" fill="#fff"/><path d="M240.8,51.84v42.9h-7.35L228,76V94.74h-7.35V51.84H228l5.39,17.59V51.84Z" fill="#fff"/><path d="M269.11,69.56a4.56,4.56,0,0,1,4.54,4.53V90.21a4.61,4.61,0,0,1-4.54,4.53h-11a4.56,4.56,0,0,1-4.54-4.53V81.38l7.35-1.72v7.66h5.33V76.91h-8.15a4.53,4.53,0,0,1-4.54-4.54v-16a4.52,4.52,0,0,1,4.54-4.54h11a4.56,4.56,0,0,1,4.54,4.54v8.7l-7.41,1.72V59.2H260.9V69.56Z" fill="#fff"/><path d="M300.55,73.23l6.86,21.51H300l-.06-.24-5.52-17.59h-.68V94.74h-7.35V51.84h7.35V69.56h.55l5.64-17.71h7.48Z" fill="#fff"/><path d="M319.43,51.84h7.35v42.9h-7.35Z" fill="#fff"/></svg>